<svg id="Capa_1" data-name="Capa 1" xmlns="http://www.w3.org/2000/svg" viewBox="0 0 475.07 475.09"><defs><style>.cls-1{fill:#fff;}</style></defs><title>google_icon_73542</title><path class="cls-1" d="M273.37,302.5a148.1,148.1,0,0,0-16.7-18.84q-9.13-8.71-18.27-15.85T221.7,254.1a67.56,67.56,0,0,1-12.28-13.7,26.16,26.16,0,0,1-4.71-14.56,32.05,32.05,0,0,1,6.57-19.27,112.7,112.7,0,0,1,16-17.42q9.42-8.43,18.84-18.41t16-26.42q6.56-16.41,6.56-37.54a110,110,0,0,0-11.14-48.25q-11.13-23.13-31.4-36h38.54L303.2,0H178.44a255.58,255.58,0,0,0-53.38,5.72q-39.69,8.85-66.81,40.4T31.13,117.64q0,42.26,30.4,70.23t72.95,28a164,164,0,0,0,20-1.43,62.41,62.41,0,0,1-2,6.14l-2.29,6.14a31.24,31.24,0,0,0-1.42,5.56,39.21,39.21,0,0,0-.57,6.71q0,18.85,18.27,42.54a337.77,337.77,0,0,0-42.83,3.86,327.24,327.24,0,0,0-44.25,10.28A137.46,137.46,0,0,0,38,315.92q-18.27,13.29-27.4,31.55Q0,368.61,0,386a70.86,70.86,0,0,0,8.56,34.69,77,77,0,0,0,22,25.4,131.23,131.23,0,0,0,31,16.57,180.4,180.4,0,0,0,34.83,9.56,209.38,209.38,0,0,0,34.12,2.85q76.52,0,119.91-37.4,40-34.83,40-80.51a95.55,95.55,0,0,0-4.71-30.41A85,85,0,0,0,273.37,302.5ZM163.31,198.72a55.4,55.4,0,0,1-27.69-7.42A73.45,73.45,0,0,1,113.35,172a138.45,138.45,0,0,1-16-26.69,146.66,146.66,0,0,1-10.14-29.69,130.94,130.94,0,0,1-3.28-28.27Q83.94,60,98.5,40.26t41.12-19.7a54.66,54.66,0,0,1,34.11,11.71,81.53,81.53,0,0,1,24,29.69,187.6,187.6,0,0,1,13.41,37.26,153.54,153.54,0,0,1,4.72,36.4q0,28.55-12.42,45.83T163.31,198.72Zm78.94,214.4a56.15,56.15,0,0,1-21.27,21,107.89,107.89,0,0,1-28.69,11.14,140.16,140.16,0,0,1-32.12,3.58,156.32,156.32,0,0,1-36.26-4.29,144.55,144.55,0,0,1-34.4-13,71.63,71.63,0,0,1-26.55-24,61.27,61.27,0,0,1-10.14-34.69q0-17.13,7.71-30.55a62.77,62.77,0,0,1,19.7-21.41,111.74,111.74,0,0,1,28-13.13,178.4,178.4,0,0,1,30.84-7.14,226.85,226.85,0,0,1,30.26-2,135.85,135.85,0,0,1,14.28.56c1.14.77,4,2.76,8.7,6s7.81,5.43,9.43,6.57,4.56,3.32,8.85,6.56,7.32,5.66,9.13,7.28,4.42,4.05,7.85,7.28a55.28,55.28,0,0,1,7.57,8.42q2.41,3.57,6,8.7a35.82,35.82,0,0,1,5,9.86q1.42,4.71,2.71,10.28a51.67,51.67,0,0,1,1.28,11.57Q250.1,399.7,242.25,413.12Z" transform="translate(-0.01 0)"/><polygon class="cls-1" points="401.99 73.09 401.99 0 365.44 0 365.44 73.09 292.35 73.09 292.35 109.64 365.44 109.64 365.44 182.72 401.99 182.72 401.99 109.64 475.07 109.64 475.07 73.09 401.99 73.09"/></svg>