<svg id="Слой_1" data-name="Слой 1" xmlns="http://www.w3.org/2000/svg" viewBox="0 0 60.1 49.2"><defs><style>.cls-1{fill:#fff;}</style></defs><title>TW_icon_124253</title><g id="twitter"><path class="cls-1" d="M59.5,15.8A21.28,21.28,0,0,1,57,17.4a21.75,21.75,0,0,1,.1,2.6A40,40,0,0,1,44.2,49.4a37.23,37.23,0,0,1-22.3,7.3A37.59,37.59,0,0,1,2,51a22.18,22.18,0,0,0,3.7.3A24.67,24.67,0,0,0,21,46,12.47,12.47,0,0,1,9.4,37.3a16.41,16.41,0,0,0,2.3.2,10.55,10.55,0,0,0,3.1-.4,12,12,0,0,1-5.9-3.3A12.23,12.23,0,0,1,5.2,25v-.2a13.35,13.35,0,0,0,4.9,1.5A12.5,12.5,0,0,1,6,20.8a13.17,13.17,0,0,1-.8-4.4,12.1,12.1,0,0,1,.1-1.9A13.29,13.29,0,0,1,7,9.9q1.35,1.5,3,3c.5.5,1.1.9,1.6,1.4a40.84,40.84,0,0,0,10.3,6,7.84,7.84,0,0,0,1.4.5,30.68,30.68,0,0,0,5.2,1.4,5,5,0,0,0,1.2.2c.2,0,.3.1.5.1l2.3.3a13.61,13.61,0,0,1-.4-3A12.23,12.23,0,0,1,37.4,9.7a1.61,1.61,0,0,1,.7-.4.1.1,0,0,1,.1.1V9.3a12.56,12.56,0,0,1,6.4-1.8,12.24,12.24,0,0,1,9.1,4l2.5-.6a18.41,18.41,0,0,0,2.5-.9,24.37,24.37,0,0,0,2.8-1.4,12.75,12.75,0,0,1-2.3,4.1,23.91,23.91,0,0,1-2.3,2.2c-.2.1-.4.3-.6.4h-.2v.1l.1-.1c.2,0,.4-.1.7-.1a23.81,23.81,0,0,0,2.6-.5,19.75,19.75,0,0,0,2.6-.8A24.76,24.76,0,0,0,59.5,15.8Z" transform="translate(-2 -7.5)"/></g></svg>